<mxfile host="app.diagrams.net" modified="2023-03-23T18:06:35.905Z" agent="5.0 (Windows NT 10.0; Win64; x64) AppleWebKit/537.36 (KHTML, like Gecko) Chrome/108.0.0.0 YaBrowser/23.1.5.708 Yowser/2.5 Safari/537.36" etag="0F3gnl26Qhdxqv24bD_K" version="21.0.8" type="github">
  <diagram name="Страница 1" id="K2V3-VxV0s9J7Tq85YVR">
    <mxGraphModel dx="1434" dy="791" grid="1" gridSize="10" guides="1" tooltips="1" connect="1" arrows="1" fold="1" page="1" pageScale="1" pageWidth="827" pageHeight="1169" background="#ffffff" math="0" shadow="0">
      <root>
        <mxCell id="0" />
        <mxCell id="1" parent="0" />
        <mxCell id="yZuLZJpehH02t76p9y52-29" value="AuthorizationService" style="rounded=0;whiteSpace=wrap;html=1;fillColor=none;dashed=1;dashPattern=12 12;verticalAlign=top;fontStyle=1" parent="1" vertex="1">
          <mxGeometry x="240" y="80" width="320" height="200" as="geometry" />
        </mxCell>
        <mxCell id="yZuLZJpehH02t76p9y52-30" value="&lt;b&gt;UserService&lt;/b&gt;" style="rounded=0;whiteSpace=wrap;html=1;dashed=1;dashPattern=12 12;verticalAlign=top;fillColor=none;" parent="1" vertex="1">
          <mxGeometry x="240" y="320" width="360" height="280" as="geometry" />
        </mxCell>
        <mxCell id="yZuLZJpehH02t76p9y52-31" value="Version 1" style="text;html=1;strokeColor=none;fillColor=none;align=center;verticalAlign=middle;whiteSpace=wrap;rounded=0;" parent="1" vertex="1">
          <mxGeometry x="720" width="107" height="40" as="geometry" />
        </mxCell>
        <mxCell id="yZuLZJpehH02t76p9y52-32" style="edgeStyle=orthogonalEdgeStyle;rounded=0;orthogonalLoop=1;jettySize=auto;html=1;exitX=1;exitY=0.5;exitDx=0;exitDy=0;entryX=0;entryY=0.5;entryDx=0;entryDy=0;" parent="1" source="yZuLZJpehH02t76p9y52-33" target="yZuLZJpehH02t76p9y52-39" edge="1">
          <mxGeometry relative="1" as="geometry">
            <mxPoint x="230" y="180" as="sourcePoint" />
          </mxGeometry>
        </mxCell>
        <mxCell id="yZuLZJpehH02t76p9y52-33" value="&lt;b&gt;UserController&lt;/b&gt;&lt;br&gt;#autharization(POST)&lt;br&gt;(header: token =&amp;nbsp;&lt;br&gt;Base64Url(username + password&lt;br&gt;(cookie: sessionId)&lt;br&gt;* username" style="ellipse;whiteSpace=wrap;html=1;" parent="1" vertex="1">
          <mxGeometry y="90" width="190" height="100" as="geometry" />
        </mxCell>
        <mxCell id="yZuLZJpehH02t76p9y52-34" style="edgeStyle=orthogonalEdgeStyle;rounded=0;orthogonalLoop=1;jettySize=auto;html=1;exitX=0.5;exitY=1;exitDx=0;exitDy=0;entryX=0.5;entryY=0;entryDx=0;entryDy=0;" parent="1" source="yZuLZJpehH02t76p9y52-50" target="yZuLZJpehH02t76p9y52-35" edge="1">
          <mxGeometry relative="1" as="geometry">
            <Array as="points">
              <mxPoint x="715" y="320" />
              <mxPoint x="715" y="320" />
            </Array>
          </mxGeometry>
        </mxCell>
        <mxCell id="yZuLZJpehH02t76p9y52-35" value="Response(OK)" style="ellipse;whiteSpace=wrap;html=1;" parent="1" vertex="1">
          <mxGeometry x="655" y="340" width="120" height="80" as="geometry" />
        </mxCell>
        <mxCell id="yZuLZJpehH02t76p9y52-36" value="Response(UNAUTHORIZED)" style="ellipse;whiteSpace=wrap;html=1;" parent="1" vertex="1">
          <mxGeometry x="615" y="460" width="170" height="80" as="geometry" />
        </mxCell>
        <mxCell id="yZuLZJpehH02t76p9y52-37" style="edgeStyle=orthogonalEdgeStyle;rounded=0;orthogonalLoop=1;jettySize=auto;html=1;exitX=0;exitY=0.75;exitDx=0;exitDy=0;entryX=0;entryY=0.25;entryDx=0;entryDy=0;dashed=1;" parent="1" source="yZuLZJpehH02t76p9y52-39" target="yZuLZJpehH02t76p9y52-41" edge="1">
          <mxGeometry relative="1" as="geometry">
            <Array as="points">
              <mxPoint x="250" y="150" />
              <mxPoint x="250" y="370" />
            </Array>
          </mxGeometry>
        </mxCell>
        <mxCell id="yZuLZJpehH02t76p9y52-38" style="edgeStyle=orthogonalEdgeStyle;rounded=0;orthogonalLoop=1;jettySize=auto;html=1;exitX=1;exitY=0.5;exitDx=0;exitDy=0;entryX=0;entryY=0.5;entryDx=0;entryDy=0;" parent="1" source="yZuLZJpehH02t76p9y52-39" target="yZuLZJpehH02t76p9y52-50" edge="1">
          <mxGeometry relative="1" as="geometry" />
        </mxCell>
        <mxCell id="yZuLZJpehH02t76p9y52-39" value="sheckUserData(sessionId, username, token)" style="rounded=0;whiteSpace=wrap;html=1;" parent="1" vertex="1">
          <mxGeometry x="280" y="120" width="240" height="40" as="geometry" />
        </mxCell>
        <mxCell id="yZuLZJpehH02t76p9y52-40" style="edgeStyle=orthogonalEdgeStyle;rounded=0;orthogonalLoop=1;jettySize=auto;html=1;exitX=0;exitY=0.75;exitDx=0;exitDy=0;entryX=1;entryY=0;entryDx=0;entryDy=27.5;entryPerimeter=0;dashed=1;" parent="1" source="yZuLZJpehH02t76p9y52-41" target="yZuLZJpehH02t76p9y52-44" edge="1">
          <mxGeometry relative="1" as="geometry">
            <Array as="points">
              <mxPoint x="200" y="390" />
              <mxPoint x="200" y="268" />
            </Array>
          </mxGeometry>
        </mxCell>
        <mxCell id="yZuLZJpehH02t76p9y52-41" value="getUserByUsernameAndToken(username, token)" style="rounded=0;whiteSpace=wrap;html=1;" parent="1" vertex="1">
          <mxGeometry x="280" y="360" width="280" height="40" as="geometry" />
        </mxCell>
        <mxCell id="yZuLZJpehH02t76p9y52-42" style="edgeStyle=orthogonalEdgeStyle;rounded=0;orthogonalLoop=1;jettySize=auto;html=1;exitX=0;exitY=0.5;exitDx=0;exitDy=0;entryX=1;entryY=0;entryDx=0;entryDy=52.5;entryPerimeter=0;dashed=1;" parent="1" source="yZuLZJpehH02t76p9y52-43" target="yZuLZJpehH02t76p9y52-44" edge="1">
          <mxGeometry relative="1" as="geometry">
            <Array as="points">
              <mxPoint x="270" y="540" />
              <mxPoint x="270" y="460" />
              <mxPoint x="180" y="460" />
              <mxPoint x="180" y="293" />
            </Array>
          </mxGeometry>
        </mxCell>
        <mxCell id="yZuLZJpehH02t76p9y52-43" value="saveSession(sessionEntity)" style="rounded=0;whiteSpace=wrap;html=1;" parent="1" vertex="1">
          <mxGeometry x="280" y="520" width="160" height="40" as="geometry" />
        </mxCell>
        <mxCell id="yZuLZJpehH02t76p9y52-44" value="Session DB&lt;br&gt;(PostgreSQL)" style="shape=cylinder3;whiteSpace=wrap;html=1;boundedLbl=1;backgroundOutline=1;size=15;" parent="1" vertex="1">
          <mxGeometry x="20" y="240" width="80" height="80" as="geometry" />
        </mxCell>
        <mxCell id="yZuLZJpehH02t76p9y52-45" style="edgeStyle=orthogonalEdgeStyle;rounded=0;orthogonalLoop=1;jettySize=auto;html=1;exitX=1;exitY=0.5;exitDx=0;exitDy=0;entryX=1;entryY=0.5;entryDx=0;entryDy=0;" parent="1" source="yZuLZJpehH02t76p9y52-50" target="yZuLZJpehH02t76p9y52-36" edge="1">
          <mxGeometry relative="1" as="geometry">
            <Array as="points">
              <mxPoint x="800" y="140" />
              <mxPoint x="800" y="500" />
            </Array>
          </mxGeometry>
        </mxCell>
        <mxCell id="yZuLZJpehH02t76p9y52-46" value="NO" style="edgeLabel;html=1;align=center;verticalAlign=middle;resizable=0;points=[];" parent="yZuLZJpehH02t76p9y52-45" vertex="1" connectable="0">
          <mxGeometry x="-0.8462" y="1" relative="1" as="geometry">
            <mxPoint x="-13" y="1" as="offset" />
          </mxGeometry>
        </mxCell>
        <mxCell id="yZuLZJpehH02t76p9y52-47" style="edgeStyle=orthogonalEdgeStyle;rounded=0;orthogonalLoop=1;jettySize=auto;html=1;exitX=0.5;exitY=1;exitDx=0;exitDy=0;entryX=1;entryY=0.25;entryDx=0;entryDy=0;" parent="1" source="yZuLZJpehH02t76p9y52-50" target="yZuLZJpehH02t76p9y52-53" edge="1">
          <mxGeometry relative="1" as="geometry" />
        </mxCell>
        <mxCell id="yZuLZJpehH02t76p9y52-48" value="YES" style="edgeLabel;html=1;align=center;verticalAlign=middle;resizable=0;points=[];" parent="yZuLZJpehH02t76p9y52-47" vertex="1" connectable="0">
          <mxGeometry x="-0.6615" y="-3" relative="1" as="geometry">
            <mxPoint x="3" y="-13" as="offset" />
          </mxGeometry>
        </mxCell>
        <mxCell id="yZuLZJpehH02t76p9y52-49" value="ASYNC" style="edgeLabel;html=1;align=center;verticalAlign=middle;resizable=0;points=[];rotation=0;" parent="yZuLZJpehH02t76p9y52-47" vertex="1" connectable="0">
          <mxGeometry x="0.4769" y="1" relative="1" as="geometry">
            <mxPoint x="30" y="-1" as="offset" />
          </mxGeometry>
        </mxCell>
        <mxCell id="yZuLZJpehH02t76p9y52-50" value="User Exists?" style="rhombus;whiteSpace=wrap;html=1;" parent="1" vertex="1">
          <mxGeometry x="670" y="100" width="90" height="80" as="geometry" />
        </mxCell>
        <mxCell id="yZuLZJpehH02t76p9y52-51" style="edgeStyle=orthogonalEdgeStyle;rounded=0;orthogonalLoop=1;jettySize=auto;html=1;exitX=1;exitY=0.75;exitDx=0;exitDy=0;entryX=1;entryY=0.5;entryDx=0;entryDy=0;dashed=1;" parent="1" source="yZuLZJpehH02t76p9y52-53" target="yZuLZJpehH02t76p9y52-55" edge="1">
          <mxGeometry relative="1" as="geometry">
            <Array as="points">
              <mxPoint x="570" y="230" />
              <mxPoint x="570" y="460" />
            </Array>
          </mxGeometry>
        </mxCell>
        <mxCell id="yZuLZJpehH02t76p9y52-52" style="edgeStyle=orthogonalEdgeStyle;rounded=0;orthogonalLoop=1;jettySize=auto;html=1;entryX=1;entryY=0.5;entryDx=0;entryDy=0;" parent="1" target="yZuLZJpehH02t76p9y52-43" edge="1">
          <mxGeometry relative="1" as="geometry">
            <mxPoint x="520" y="220" as="sourcePoint" />
            <Array as="points">
              <mxPoint x="590" y="220" />
              <mxPoint x="590" y="540" />
            </Array>
          </mxGeometry>
        </mxCell>
        <mxCell id="yZuLZJpehH02t76p9y52-53" value="bindingUserOfSession(userId, sessionId)" style="rounded=0;whiteSpace=wrap;html=1;" parent="1" vertex="1">
          <mxGeometry x="280" y="200" width="240" height="40" as="geometry" />
        </mxCell>
        <mxCell id="yZuLZJpehH02t76p9y52-54" style="edgeStyle=orthogonalEdgeStyle;rounded=0;orthogonalLoop=1;jettySize=auto;html=1;exitX=0;exitY=0.25;exitDx=0;exitDy=0;entryX=1;entryY=0.5;entryDx=0;entryDy=0;entryPerimeter=0;dashed=1;" parent="1" source="yZuLZJpehH02t76p9y52-55" target="yZuLZJpehH02t76p9y52-44" edge="1">
          <mxGeometry relative="1" as="geometry" />
        </mxCell>
        <mxCell id="yZuLZJpehH02t76p9y52-55" value="getSessionBySessionId(sessionId)" style="rounded=0;whiteSpace=wrap;html=1;" parent="1" vertex="1">
          <mxGeometry x="280" y="440" width="200" height="40" as="geometry" />
        </mxCell>
        <mxCell id="yZuLZJpehH02t76p9y52-56" value="&lt;b&gt;&lt;font style=&quot;font-size: 14px;&quot;&gt;User&#39;s authorization&lt;/font&gt;&lt;/b&gt;" style="text;html=1;strokeColor=default;fillColor=none;align=center;verticalAlign=middle;whiteSpace=wrap;rounded=0;strokeWidth=1;" parent="1" vertex="1">
          <mxGeometry width="160" height="40" as="geometry" />
        </mxCell>
      </root>
    </mxGraphModel>
  </diagram>
</mxfile>
